<svg width="969" height="265" viewBox="0 0 969 265" fill="none" xmlns="http://www.w3.org/2000/svg">
<rect width="60" height="60" fill="#F36D1F"></rect>
<path d="M180 140H60C60 173.137 86.8629 200 120 200H180V260C114.616 260 81.9238 260 57.2822 246.545C38.7743 236.439 23.5612 221.226 13.4551 202.718C-0.000232574 178.076 0 145.384 0 80H180V140Z" fill="#1E1E1E"></path>
<path d="M200.298 260.002V0L258.486 0.00122462V260.002H200.298ZM320.404 260.002V164.514H378.592V260.002H320.404ZM320.404 164.514C320.404 154.567 319.285 146.734 317.047 141.015C314.809 135.047 311.576 130.695 307.349 127.96C303.122 125.224 298.148 123.732 292.429 123.484C281.239 123.235 272.784 126.343 267.065 132.809C261.346 139.025 258.486 148.599 258.486 161.53H240.955C240.955 141.885 243.939 125.224 249.907 111.548C255.875 97.6223 263.957 87.054 274.152 79.8426C284.596 72.6313 296.532 69.0256 309.96 69.0256C325.129 69.0256 337.811 72.134 348.006 78.3506C358.201 84.3186 365.786 93.5193 370.759 105.953C375.981 118.386 378.592 134.301 378.592 153.697V164.514H320.404Z" fill="#1E1E1E"></path>
<path d="M496.16 264.478C476.764 264.478 459.606 260.375 444.686 252.169C429.766 243.963 418.078 232.524 409.624 217.853C401.169 203.181 396.942 186.148 396.942 166.752C396.942 147.356 401.169 130.322 409.624 115.651C418.078 100.979 429.766 89.5406 444.686 81.3346C459.854 73.1286 477.261 69.0256 496.906 69.0256C514.561 69.0256 530.476 73.253 544.65 81.7076C558.824 90.1623 570.014 102.844 578.22 119.754C586.674 136.414 590.902 157.054 590.902 181.672H450.654L456.995 174.585C456.995 183.039 458.735 190.499 462.217 196.965C465.698 203.43 470.547 208.403 476.764 211.885C482.98 215.117 489.943 216.734 497.652 216.734C506.852 216.734 514.561 214.744 520.778 210.766C526.994 206.538 531.346 201.316 533.833 195.1L585.68 212.631C580.706 224.567 573.619 234.389 564.419 242.098C555.467 249.806 545.147 255.526 533.46 259.256C521.772 262.737 509.339 264.478 496.16 264.478ZM458.487 150.713L452.519 142.88H536.071L530.476 150.713C530.476 141.263 528.611 133.928 524.881 128.706C521.151 123.235 516.55 119.256 511.08 116.77C505.858 114.283 500.511 113.04 495.041 113.04C489.57 113.04 483.975 114.283 478.256 116.77C472.785 119.256 468.06 123.235 464.082 128.706C460.352 133.928 458.487 141.263 458.487 150.713Z" fill="#1E1E1E"></path>
<path d="M698.165 264.478C678.521 264.478 661.238 260.375 646.318 252.169C631.398 243.714 619.587 232.151 610.883 217.48C602.429 202.808 598.201 185.899 598.201 166.752C598.201 147.604 602.304 130.695 610.51 116.024C618.965 101.352 630.652 89.9136 645.572 81.7076C660.741 73.253 677.899 69.0256 697.046 69.0256C716.691 69.0256 733.973 73.253 748.893 81.7076C764.062 89.9136 775.749 101.352 783.955 116.024C792.41 130.695 796.637 147.604 796.637 166.752C796.637 185.899 792.41 202.808 783.955 217.48C775.749 232.151 764.186 243.714 749.266 252.169C734.346 260.375 717.313 264.478 698.165 264.478ZM698.165 210.766C705.625 210.766 712.215 208.901 717.934 205.171C723.902 201.441 728.503 196.343 731.735 189.878C735.217 183.164 736.957 175.455 736.957 166.752C736.957 158.048 735.217 150.464 731.735 143.999C728.503 137.285 723.902 132.063 717.934 128.333C711.966 124.603 705.128 122.738 697.419 122.738C689.711 122.738 682.872 124.603 676.904 128.333C670.936 132.063 666.212 137.285 662.73 143.999C659.498 150.464 657.881 158.048 657.881 166.752C657.881 175.455 659.498 183.164 662.73 189.878C666.212 196.343 670.936 201.441 676.904 205.171C683.121 208.901 690.208 210.766 698.165 210.766Z" fill="#1E1E1E"></path>
<path d="M887.661 264.478C875.476 264.478 864.038 262.737 853.345 259.256C842.901 255.774 833.7 250.801 825.743 244.336C818.034 237.622 812.315 229.54 808.585 220.091L856.702 199.949C859.935 206.165 864.411 210.89 870.13 214.123C875.849 217.107 881.693 218.599 887.661 218.599C893.629 218.599 898.354 217.604 901.835 215.615C905.316 213.377 907.057 210.393 907.057 206.663C907.057 202.684 905.316 199.576 901.835 197.338C898.354 195.1 893.256 193.11 886.542 191.37L870.13 187.64C852.972 183.164 839.668 175.704 830.219 165.26C820.77 154.816 816.045 142.755 816.045 129.079C816.045 109.931 822.635 95.1356 835.814 84.6916C848.993 74.2476 867.27 69.0256 890.645 69.0256C904.073 69.0256 915.76 70.8906 925.707 74.6206C935.902 78.102 944.357 83.0753 951.071 89.5406C958.034 95.7573 963.007 102.969 965.991 111.175L919.739 130.571C917.998 125.597 914.393 121.743 908.922 119.008C903.451 116.272 897.608 114.905 891.391 114.905C885.92 114.905 881.693 116.148 878.709 118.635C875.725 121.121 874.233 124.23 874.233 127.96C874.233 130.944 875.974 133.555 879.455 135.793C883.185 137.782 888.531 139.647 895.494 141.388L915.263 146.237C926.95 149.221 936.773 153.821 944.73 160.038C952.687 166.006 958.655 173.093 962.634 181.299C966.613 189.256 968.602 197.835 968.602 207.036C968.602 218.972 965.121 229.291 958.158 237.995C951.444 246.449 941.995 253.039 929.81 257.764C917.625 262.24 903.576 264.478 887.661 264.478Z" fill="#1E1E1E"></path>
</svg>